<?xml version="1.0" standalone="no"?>
<!DOCTYPE svg PUBLIC "-//W3C//DTD SVG 20010904//EN"
 "http://www.w3.org/TR/2001/REC-SVG-20010904/DTD/svg10.dtd">
<svg version="1.0" xmlns="http://www.w3.org/2000/svg"
 width="73.000000pt" height="54.000000pt" viewBox="0 0 73.000000 54.000000"
 preserveAspectRatio="xMidYMid meet">
<metadata>
Created by potrace 1.10, written by Peter Selinger 2001-2011
</metadata>
<g transform="translate(0.000000,54.000000) scale(0.100000,-0.100000)"
fill="#000000" stroke="none">
<path d="M57 502 c-14 -15 -17 -49 -17 -221 -2 -254 -11 -241 161 -241 134 0
149 7 149 69 0 54 -23 71 -93 71 -43 0 -57 4 -57 14 0 14 28 29 46 25 5 -1 23
-1 41 0 28 1 33 6 42 38 17 61 -2 87 -68 93 -75 7 -81 30 -8 30 82 0 87 4 87
64 0 29 -5 57 -12 64 -8 8 -52 12 -133 12 -105 0 -124 -3 -138 -18z m271 -51
l3 -41 -80 0 -81 0 0 -42 0 -43 70 3 70 4 0 -46 0 -46 -70 0 -70 0 0 -46 0
-46 78 4 77 3 3 -43 3 -42 -135 0 -136 0 0 208 c0 115 2 211 4 213 2 2 62 3
133 2 l128 -1 3 -41z"/>
<path d="M370 450 l0 -40 58 0 57 0 -3 -170 -3 -170 51 0 50 0 0 170 0 170 58
0 57 0 0 40 1 40 -163 0 -163 0 0 -40z m236 -3 c4 -4 -1 -7 -12 -7 -35 0 -43
-32 -45 -184 -1 -118 -4 -146 -15 -146 -17 0 -15 -14 -17 156 -2 151 -10 174
-57 174 -12 0 -19 3 -17 8 6 9 154 8 163 -1z"/>
</g>
</svg>
